<mxfile host="app.diagrams.net" modified="2023-07-11T22:58:28.006Z" agent="Mozilla/5.0 (X11; Linux x86_64; rv:109.0) Gecko/20100101 Firefox/115.0" version="21.6.2" etag="xsC8pWFjEPRLoKxHVzFY" type="github">
  <diagram name="PÃ¡gina-1" id="T95ud2BpuavYuRtcEiEC">
    <mxGraphModel>
      <root>
        <mxCell id="0" />
        <mxCell id="1" parent="0" />
      </root>
    </mxGraphModel>
  </diagram>
</mxfile>
